<svg width="31" height="34" viewBox="0 0 31 34" fill="none" xmlns="http://www.w3.org/2000/svg">
<path d="M1.4781 16.5592C2.85256 14.8694 4.45102 13.1139 6.49018 11.1575C8.53421 9.19873 10.353 7.66845 12.1085 6.34756C14.0539 4.8891 16.5375 4.83797 18.4439 6.34025C20.2055 7.66114 22.0231 9.19264 24.0659 11.1539C26.1099 13.1115 27.7084 14.8597 29.0804 16.5494C30.6996 18.5375 30.6947 20.6412 29.0731 22.6243C27.6962 24.3129 26.1026 26.0659 24.061 28.0272C22.0194 29.9823 20.2067 31.5102 18.4476 32.8299C16.4961 34.2944 14.0637 34.292 12.1183 32.8299C10.3542 31.5065 8.53907 29.9762 6.49991 28.0187C4.45588 26.0647 2.86838 24.3202 1.49028 22.6243C-0.0290495 20.7617 -0.0813983 18.3926 1.47689 16.558" fill="#1B1464"/>
<path d="M0.0525579 19.9899C0.229082 20.937 0.674654 21.7295 1.40997 22.6316C2.78686 24.3202 4.45836 26.0647 6.50117 28.0187C8.54033 29.9811 10.3555 31.5102 12.1195 32.8311C12.9413 33.4495 13.8677 33.8148 14.7759 33.9012C12.906 33.4495 10.1619 30.5716 11.6155 25.3671C13.0034 20.4184 15.2263 16.8039 16.3451 14.5846L16.3817 14.5213C18.6473 10.2591 15.4455 8.80552 12.9364 10.9421C14.7162 8.48899 18.7885 4.49102 20.208 3.0277C21.6141 1.55463 20.6097 0.0535677 17.8012 0.809579C12.0209 2.559 4.82724 7.99107 1.47814 14.3849C0.35691 16.519 -0.122749 18.3756 0.0525579 19.9911" fill="#E11F27"/>
</svg>
