<svg width="18" height="19" viewBox="0 0 18 19" fill="none" xmlns="http://www.w3.org/2000/svg">
<g clip-path="url(#clip0_3317_6904)">
<path d="M9 16.875C4.85775 16.875 1.5 13.5173 1.5 9.375C1.5 5.23275 4.85775 1.875 9 1.875C13.1423 1.875 16.5 5.23275 16.5 9.375C16.5 13.5173 13.1423 16.875 9 16.875ZM9 15.375C10.5913 15.375 12.1174 14.7429 13.2426 13.6176C14.3679 12.4924 15 10.9663 15 9.375C15 7.7837 14.3679 6.25758 13.2426 5.13236C12.1174 4.00714 10.5913 3.375 9 3.375C7.4087 3.375 5.88258 4.00714 4.75736 5.13236C3.63214 6.25758 3 7.7837 3 9.375C3 10.9663 3.63214 12.4924 4.75736 13.6176C5.88258 14.7429 7.4087 15.375 9 15.375ZM9 8.3145L11.121 6.19275L12.1823 7.254L10.0605 9.375L12.1823 11.496L11.121 12.5573L9 10.4355L6.879 12.5573L5.81775 11.496L7.9395 9.375L5.81775 7.254L6.879 6.19275L9 8.3145Z" fill="#E9575D"/>
</g>
<defs>
<clipPath id="clip0_3317_6904">
<rect width="18" height="18" fill="white" transform="translate(0 0.375)"/>
</clipPath>
</defs>
</svg>
