<svg width="24" height="24" viewBox="0 0 24 24" fill="none" xmlns="http://www.w3.org/2000/svg">
<path d="M11.8188 22C6.29585 22 1.81885 17.523 1.81885 12C1.81885 6.477 6.29585 2 11.8188 2C17.3418 2 21.8188 6.477 21.8188 12C21.8188 17.523 17.3418 22 11.8188 22ZM11.8188 20C13.9406 20 15.9754 19.1571 17.4757 17.6569C18.976 16.1566 19.8188 14.1217 19.8188 12C19.8188 9.87827 18.976 7.84344 17.4757 6.34315C15.9754 4.84285 13.9406 4 11.8188 4C9.69712 4 7.66228 4.84285 6.16199 6.34315C4.6617 7.84344 3.81885 9.87827 3.81885 12C3.81885 14.1217 4.6617 16.1566 6.16199 17.6569C7.66228 19.1571 9.69712 20 11.8188 20ZM12.8188 12H16.8188V14H10.8188V7H12.8188V12Z" fill="#808080"/>
</svg>
