<svg width="41" height="41" viewBox="0 0 41 41" fill="none" xmlns="http://www.w3.org/2000/svg">
<g id="facebook">
<path id="Vector" d="M40.271 20.7187C40.271 30.82 32.7856 39.1709 23.0613 40.526C22.1521 40.6521 21.2219 40.718 20.2776 40.718C19.1876 40.718 18.1173 40.6311 17.0749 40.463C7.55527 38.9298 0.28418 30.6728 0.28418 20.7187C0.28418 9.67292 9.23645 0.718018 20.279 0.718018C31.3215 0.718018 40.2738 9.67292 40.2738 20.7187H40.271Z" fill="#1B1464"/>
<path id="Vector_2" d="M23.0611 16.778V21.1349H28.4493L27.5961 27.004H23.0611V40.526C22.1519 40.6521 21.2217 40.718 20.2774 40.718C19.1874 40.718 18.1171 40.6311 17.0748 40.463V27.004H12.1055V21.1349H17.0748V15.804C17.0748 12.4967 19.7548 9.81445 23.0625 9.81445V9.81726C23.0724 9.81726 23.0808 9.81445 23.0906 9.81445H28.4507V14.8903H24.9483C23.9073 14.8903 23.0625 15.7354 23.0625 16.7766L23.0611 16.778Z" fill="white"/>
</g>
</svg>
