<svg width="41" height="41" viewBox="0 0 41 41" fill="none" xmlns="http://www.w3.org/2000/svg">
<path d="M20.3131 0.718018H20.222C9.20472 0.718018 0.273438 9.65193 0.273438 20.6725V20.7636C0.273438 31.7841 9.20472 40.718 20.222 40.718H20.3131C31.3304 40.718 40.2617 31.7841 40.2617 20.7636V20.6725C40.2617 9.65193 31.3304 0.718018 20.3131 0.718018Z" fill="#1B1464"/>
<path d="M26.4546 8.85571H14.0812C10.6628 8.85571 7.88184 11.6375 7.88184 15.0569V26.3801C7.88184 29.7995 10.6628 32.5813 14.0812 32.5813H26.4546C29.873 32.5813 32.654 29.7995 32.654 26.3801V15.0569C32.654 11.6375 29.873 8.85571 26.4546 8.85571ZM10.0688 15.0569C10.0688 12.8441 11.869 11.0433 14.0812 11.0433H26.4546C28.6668 11.0433 30.4671 12.8441 30.4671 15.0569V26.3801C30.4671 28.5929 28.6668 30.3937 26.4546 30.3937H14.0812C11.869 30.3937 10.0688 28.5929 10.0688 26.3801V15.0569Z" fill="white"/>
<path d="M20.2684 26.4855C23.4472 26.4855 26.0348 23.8985 26.0348 20.7174C26.0348 17.5362 23.4486 14.9492 20.2684 14.9492C17.0882 14.9492 14.502 17.5362 14.502 20.7174C14.502 23.8985 17.0882 26.4855 20.2684 26.4855ZM20.2684 17.1382C22.2424 17.1382 23.8479 18.7442 23.8479 20.7188C23.8479 22.6933 22.2424 24.2993 20.2684 24.2993C18.2944 24.2993 16.6889 22.6933 16.6889 20.7188C16.6889 18.7442 18.2944 17.1382 20.2684 17.1382Z" fill="white"/>
<path d="M26.5683 15.881C27.4243 15.881 28.122 15.1845 28.122 14.3269C28.122 13.4692 27.4257 12.7727 26.5683 12.7727C25.7109 12.7727 25.0146 13.4692 25.0146 14.3269C25.0146 15.1845 25.7109 15.881 26.5683 15.881Z" fill="white"/>
</svg>
