<svg width="40" height="41" viewBox="0 0 40 41" fill="none" xmlns="http://www.w3.org/2000/svg">
<path d="M39.9997 20.6613C39.9997 9.64691 31.0735 0.718018 20.0624 0.718018C9.05127 0.718018 0.125 9.64691 0.125 20.6613C0.125 31.6756 9.05127 40.6045 20.0624 40.6045C31.0735 40.6045 39.9997 31.6756 39.9997 20.6613Z" fill="#1B1464"/>
<g clip-path="url(#clip0_3467_84)">
<path d="M28.7342 19.7831C28.7339 19.9664 28.6608 20.1421 28.531 20.2717C28.4012 20.4012 28.2254 20.474 28.042 20.474H26.118V21.7084H28.042C28.1352 21.7043 28.2282 21.7191 28.3155 21.752C28.4028 21.7848 28.4825 21.835 28.5499 21.8995C28.6173 21.964 28.6709 22.0415 28.7075 22.1273C28.7442 22.213 28.7631 22.3053 28.7631 22.3986C28.7631 22.4919 28.7442 22.5842 28.7075 22.67C28.6709 22.7557 28.6173 22.8332 28.5499 22.8977C28.4825 22.9622 28.4028 23.0124 28.3155 23.0452C28.2282 23.0781 28.1352 23.0929 28.042 23.0889H25.4271C25.2449 23.0875 25.0706 23.0143 24.942 22.8852C24.8134 22.7561 24.7408 22.5815 24.7402 22.3993V17.1668C24.7402 16.7892 25.0494 16.4759 25.4311 16.4759H28.0473C28.2305 16.4765 28.406 16.5498 28.5352 16.6797C28.6644 16.8096 28.7367 16.9856 28.7362 17.1688C28.7357 17.3521 28.6624 17.5276 28.5324 17.6568C28.4025 17.786 28.2266 17.8583 28.0433 17.8577H26.1193V19.0922H28.0433C28.4263 19.0922 28.7355 19.4041 28.7355 19.7831H28.7342ZM23.3412 23.0533C23.2706 23.0757 23.1969 23.0868 23.1228 23.0862C23.0145 23.0886 22.9072 23.065 22.8098 23.0174C22.7125 22.9698 22.6281 22.8995 22.5635 22.8125L19.8841 19.1751V22.3993C19.8709 22.573 19.7927 22.7353 19.6649 22.8537C19.5372 22.9722 19.3694 23.038 19.1952 23.038C19.021 23.038 18.8532 22.9722 18.7255 22.8537C18.5977 22.7353 18.5194 22.573 18.5063 22.3993V17.1668C18.5059 16.9849 18.5778 16.8102 18.7061 16.6812C18.8344 16.5521 19.0086 16.4793 19.1906 16.4786C19.4038 16.4786 19.6012 16.5918 19.7328 16.7563L22.4332 20.4082V17.1668C22.4332 16.7892 22.7425 16.4759 23.1241 16.4759C23.5018 16.4759 23.815 16.7892 23.815 17.1668V22.3993C23.8148 22.5443 23.7689 22.6855 23.6839 22.8029C23.5988 22.9203 23.4789 23.008 23.3412 23.0533V23.0533ZM16.827 23.0889C16.6446 23.0878 16.4699 23.0148 16.341 22.8857C16.2121 22.7565 16.1395 22.5817 16.1388 22.3993V17.1668C16.1388 16.7892 16.4493 16.4759 16.8297 16.4759C17.21 16.4759 17.5192 16.7892 17.5192 17.1668V22.3993C17.5182 22.5823 17.4449 22.7575 17.3152 22.8867C17.1855 23.0158 17.0101 23.0885 16.827 23.0889V23.0889ZM14.8135 23.0889H12.1986C12.016 23.0878 11.841 23.0149 11.7117 22.8858C11.5824 22.7568 11.5091 22.582 11.5077 22.3993V17.1668C11.5228 16.994 11.6022 16.8331 11.7301 16.7159C11.858 16.5987 12.0252 16.5337 12.1986 16.5337C12.3721 16.5337 12.5393 16.5987 12.6672 16.7159C12.7951 16.8331 12.8744 16.994 12.8895 17.1668V21.7071H14.8162C14.9994 21.7071 15.1751 21.7798 15.3047 21.9094C15.4343 22.039 15.5071 22.2147 15.5071 22.398C15.5071 22.5812 15.4343 22.7569 15.3047 22.8865C15.1751 23.0161 14.9994 23.0889 14.8162 23.0889H14.8135ZM19.9657 8.90234C12.7106 8.90234 6.80566 13.6965 6.80566 19.5857C6.80566 24.8628 11.488 29.2833 17.8114 30.1229C18.2391 30.2124 18.8234 30.4058 18.9708 30.7704C19.1024 31.0994 19.0577 31.61 19.0129 31.9548L18.8326 33.0734C18.7839 33.4024 18.5694 34.3736 19.9828 33.7801C21.3988 33.1892 27.5683 29.3083 30.3319 26.1315C32.2216 24.0588 33.1257 21.9374 33.1257 19.5857C33.1257 13.6965 27.2195 8.90234 19.9657 8.90234V8.90234Z" fill="white"/>
</g>
<defs>
<clipPath id="clip0_3467_84">
<rect width="31.5841" height="31.5841" fill="white" transform="translate(4.1748 5.51807)"/>
</clipPath>
</defs>
</svg>
