<svg width="99" height="52" viewBox="0 0 99 52" fill="none" xmlns="http://www.w3.org/2000/svg">
<path d="M3.76792 17.9391C5.25692 16.1086 6.98858 14.2068 9.19767 12.0874C11.412 9.96532 13.3824 8.30751 15.2842 6.87655C17.3917 5.29656 20.0822 5.24117 22.1476 6.86864C24.0559 8.2996 26.025 9.95873 28.238 12.0834C30.4524 14.2041 32.1841 16.098 33.6704 17.9286C35.4245 20.0823 35.4192 22.3613 33.6625 24.5097C32.1709 26.339 30.4445 28.2381 28.2328 30.3628C26.021 32.4809 24.0573 34.1361 22.1515 35.5657C20.0374 37.1523 17.4023 37.1497 15.2948 35.5657C13.3837 34.1321 11.4173 32.4743 9.20822 30.3536C6.99385 28.2368 5.27406 26.3469 3.78111 24.5097C2.13518 22.4919 2.07846 19.9253 3.76661 17.9378" fill="#1B1464"/>
<path d="M2.22358 21.6558C2.41482 22.6818 2.89752 23.5404 3.69411 24.5177C5.18574 26.3469 6.99654 28.2369 9.20958 30.3536C11.4187 32.4796 13.3851 34.1361 15.2961 35.5671C16.1864 36.2371 17.19 36.6327 18.1739 36.7264C16.1481 36.2371 13.1754 33.1193 14.7501 27.4812C16.2536 22.12 18.6619 18.2043 19.8739 15.8L19.9135 15.7314C22.3678 11.1141 18.8992 9.5394 16.1811 11.854C18.1093 9.19649 22.5208 4.86536 24.0586 3.28009C25.5819 1.68427 24.4938 0.0581156 21.4512 0.877127C15.1893 2.77233 7.39615 8.65708 3.76797 15.5837C2.5533 17.8957 2.03367 19.907 2.22358 21.6571" fill="#E11F27"/>
<path d="M50.784 25.9499H50.7457L47.6095 15.9517H43.3812V29.1416H45.9082V18.2979L45.9504 18.2597L49.4994 29.1416H52.0316L55.5833 18.2597H55.6255V29.1416H58.1564V15.9517H53.9229L50.784 25.9499Z" fill="#221F1F"/>
<path d="M66.2212 19.6378C66.2212 18.2003 67.3871 17.8099 68.2971 17.8099C69.2071 17.8099 70.1475 18.013 70.9731 18.3743L71.2223 16.1982C70.2582 15.8791 69.2005 15.7261 68.0663 15.7261C65.7438 15.7261 63.4622 16.8062 63.4622 19.7512C63.4622 24.1233 69.2427 23.0774 69.2427 25.5925C69.2427 26.7821 67.9028 27.2872 66.8991 27.2872C65.8955 27.2872 64.8153 26.9707 63.9119 26.4827L63.6679 28.8606C64.9696 29.185 65.6119 29.3697 67.0481 29.3697C69.7136 29.3697 71.9991 28.2763 71.9991 25.3854C71.9991 20.9633 66.2212 21.9234 66.2212 19.6391" fill="#221F1F"/>
<path d="M79.9612 15.9517H77.3169V29.1416H79.9612V15.9517Z" fill="#221F1F"/>
<path d="M90.4843 23.8239H93.1432V26.9997C92.8042 27.0749 92.4244 27.1474 91.4814 27.1474C88.94 27.1474 87.0909 25.2232 87.0909 22.5749C87.0909 19.9267 88.936 18.0038 91.5711 18.0038C93.2566 18.0038 94.1007 18.3308 94.8432 18.8122L95.3602 19.1498L95.5751 16.4317L95.31 16.3407C94.2893 15.9899 93.4083 15.6865 91.484 15.6865C87.3415 15.6865 84.4506 18.497 84.4506 22.5169C84.4506 26.5368 87.2729 29.4581 91.4669 29.4581C93.0021 29.4581 94.2958 29.2721 95.4353 28.8857L95.6767 28.796V21.6135H90.487V23.8226L90.4843 23.8239Z" fill="#221F1F"/>
<path d="M3.0321 45.2461H1.76599V50.6561H3.0321V45.2461Z" fill="#221F1F"/>
<path d="M5.30323 48.463C5.30323 48.6898 5.33356 48.8956 5.39291 49.0723C5.45621 49.2517 5.54326 49.402 5.65141 49.5234C5.75691 49.646 5.88748 49.7423 6.03256 49.8043C6.18291 49.8689 6.34776 49.9019 6.52185 49.9019C6.74474 49.9019 6.93466 49.8557 7.10215 49.766C7.26965 49.6777 7.40417 49.5471 7.51232 49.377C7.62046 49.2095 7.6996 49.005 7.75894 48.765C7.81038 48.521 7.84071 48.2441 7.84071 47.9368C7.84071 47.822 7.8328 47.6954 7.82357 47.553C7.81565 47.4119 7.79192 47.2721 7.76158 47.1296C7.73257 46.9859 7.69036 46.8513 7.62838 46.7181C7.56903 46.5863 7.49253 46.4689 7.39494 46.3647C7.29734 46.2644 7.17337 46.1827 7.03093 46.1181C6.88322 46.0561 6.71177 46.0271 6.50998 46.0271C6.38205 46.0271 6.24094 46.0416 6.08927 46.0785C5.931 46.1141 5.77142 46.1695 5.60656 46.2486C5.44171 46.3291 5.27157 46.4346 5.10012 46.5678C4.93263 46.6997 4.77041 46.8645 4.61214 47.0624L4.00415 46.4478C4.21121 46.1893 4.4275 45.9756 4.64643 45.8068C4.868 45.6367 5.09353 45.5008 5.3151 45.398C5.53403 45.2964 5.7556 45.2199 5.97453 45.1803C6.18818 45.1355 6.39524 45.1157 6.58912 45.1157C7.00719 45.1157 7.37384 45.183 7.68904 45.3175C7.99766 45.456 8.26011 45.6419 8.46717 45.8833C8.67687 46.1273 8.82854 46.4174 8.93537 46.7551C9.03824 47.094 9.09231 47.4633 9.09231 47.8708C9.09231 48.3535 9.02373 48.7782 8.89316 49.1435C8.75732 49.5049 8.57664 49.8135 8.34716 50.0549C8.11108 50.2988 7.84071 50.4769 7.52814 50.5995C7.21821 50.7169 6.87926 50.7789 6.52185 50.7789C6.16444 50.7789 5.86506 50.7235 5.57227 50.6114C5.27685 50.5006 5.01572 50.3265 4.79942 50.0957C4.57917 49.861 4.4064 49.5616 4.27979 49.1989C4.15186 48.8375 4.0912 48.4023 4.0912 47.9025C4.0912 47.8735 4.09119 47.8286 4.09647 47.7719C4.09779 47.7165 4.10438 47.6506 4.11625 47.5754H6.49679V48.4604H5.30323V48.463Z" fill="#221F1F"/>
<path d="M8.87073 42.6388H6.74737C6.66692 42.6388 6.58779 42.6454 6.50734 42.6678C6.43084 42.685 6.35962 42.714 6.295 42.7562C6.23565 42.7997 6.18422 42.8538 6.14729 42.9171C6.1064 42.983 6.08926 43.0622 6.08926 43.1545C6.08926 43.2099 6.09717 43.2758 6.11827 43.3484C6.13542 43.4249 6.16971 43.4921 6.22114 43.5541C6.27785 43.4974 6.33984 43.4486 6.41106 43.409C6.47964 43.3721 6.5535 43.3378 6.62999 43.3114C6.70121 43.2837 6.78034 43.2613 6.85156 43.2521C6.92805 43.2363 6.99663 43.2323 7.06126 43.2323C7.21425 43.2323 7.36196 43.2574 7.49648 43.3022C7.63496 43.3457 7.77476 43.4262 7.91984 43.5449C7.93698 43.5251 7.95808 43.4987 7.97259 43.4565C7.99237 43.4143 7.99897 43.3642 7.99897 43.2996V43.2244C7.99897 43.1439 7.98446 43.0727 7.94226 43.0002H8.71906C8.72698 43.0213 8.73753 43.0503 8.75204 43.0899C8.76391 43.1347 8.76918 43.1875 8.76918 43.2534V43.4222C8.76654 43.5396 8.74412 43.6425 8.70192 43.7374C8.65708 43.8337 8.60169 43.9168 8.52783 43.992C8.45661 44.0658 8.37616 44.1305 8.27857 44.1845C8.18756 44.2373 8.08997 44.2834 7.98314 44.3125C7.96072 44.3125 7.9383 44.3191 7.92643 44.323C7.91456 44.327 7.90401 44.327 7.89741 44.327C7.88291 44.327 7.87763 44.323 7.86708 44.3177C7.86181 44.3125 7.84994 44.3006 7.84202 44.2874C7.81169 44.2373 7.77344 44.1885 7.72992 44.1357C7.68244 44.0817 7.62837 44.0315 7.56374 43.988C7.50308 43.9432 7.4279 43.9049 7.34481 43.8733C7.25381 43.8456 7.15753 43.8311 7.04279 43.8311C6.97817 43.8311 6.91486 43.839 6.84365 43.8535C6.77902 43.868 6.70517 43.8891 6.63922 43.9274C6.56537 43.959 6.49547 44.0065 6.43084 44.0619C6.36226 44.1199 6.295 44.1898 6.23565 44.2716C6.22378 44.2848 6.22114 44.294 6.21587 44.3045C6.21323 44.3125 6.20664 44.3138 6.20136 44.3204C6.19345 44.3243 6.18422 44.3243 6.17103 44.3243C6.15784 44.3243 6.14069 44.3191 6.11695 44.3138C6.00617 44.2848 5.90066 44.2346 5.80438 44.1766C5.70679 44.1173 5.61974 44.0395 5.54721 43.9445C5.47335 43.8495 5.41928 43.7361 5.37707 43.6055C5.33355 43.4723 5.31641 43.318 5.31641 43.1426C5.31641 42.9395 5.35333 42.7588 5.4351 42.6124C5.5116 42.4687 5.62238 42.346 5.76218 42.2564C5.89934 42.164 6.06684 42.0968 6.26203 42.0519C6.45326 42.0097 6.66428 41.9873 6.89376 41.9873H9.14242L8.87205 42.6428L8.87073 42.6388Z" fill="#221F1F"/>
<path d="M11.6456 48.4761C11.6456 48.6673 11.6825 48.8533 11.7538 49.0221C11.825 49.1962 11.9239 49.3492 12.0439 49.4771C12.1639 49.6077 12.2998 49.7092 12.4527 49.787C12.6097 49.8622 12.764 49.9018 12.9328 49.9018C13.1016 49.9018 13.2493 49.8648 13.3667 49.7963C13.4841 49.7237 13.5777 49.6261 13.649 49.4982C13.7202 49.3703 13.769 49.2212 13.8006 49.0471C13.831 48.8678 13.8481 48.6752 13.8481 48.4668V45.2515H15.1129V48.3481C15.1129 48.67 15.0852 48.9548 15.0311 49.1988C14.9784 49.4402 14.9058 49.6551 14.8095 49.8332C14.7185 50.0099 14.6078 50.1603 14.4851 50.279C14.3625 50.3977 14.2332 50.4913 14.0947 50.5665C13.9523 50.6351 13.8085 50.6865 13.6621 50.7168C13.5171 50.7485 13.3746 50.7603 13.2335 50.7603C13.037 50.7603 12.855 50.734 12.6796 50.6786C12.5055 50.6258 12.3459 50.5493 12.1982 50.4596C12.0531 50.3686 11.9252 50.2658 11.8091 50.1497C11.6918 50.0376 11.5929 49.9202 11.5164 49.7989C11.5124 49.8609 11.5071 49.9308 11.4992 50.0086C11.4979 50.0851 11.49 50.1642 11.4847 50.2394C11.4794 50.3212 11.4755 50.3937 11.4715 50.4689C11.4649 50.5375 11.4623 50.6008 11.4596 50.6509H10.2925L10.3149 50.2961C10.3294 50.1115 10.3439 49.9215 10.3597 49.725C10.3716 49.5233 10.3795 49.3083 10.3795 49.0775V46.7774C10.3795 46.6204 10.3742 46.4767 10.3703 46.3395C10.3624 46.2024 10.3505 46.0771 10.336 45.9518C10.3241 45.8318 10.3043 45.7078 10.2872 45.5917C10.2687 45.4796 10.2503 45.3623 10.2305 45.2528H11.515C11.5467 45.4018 11.5757 45.539 11.5902 45.6669C11.6047 45.7935 11.6219 45.9043 11.6324 45.9979C11.6377 46.1074 11.6416 46.2076 11.6469 46.3V48.4774L11.6456 48.4761Z" fill="#221F1F"/>
<path d="M21.0807 45.2461H19.8146V50.6561H21.0807V45.2461Z" fill="#221F1F"/>
<path d="M23.3544 48.463C23.3544 48.6898 23.3834 48.8956 23.4428 49.0723C23.5034 49.2517 23.5865 49.402 23.6986 49.5234C23.8041 49.646 23.9321 49.7423 24.0798 49.8043C24.2301 49.8689 24.3923 49.9019 24.5717 49.9019C24.7906 49.9019 24.9819 49.8557 25.1494 49.766C25.3169 49.6777 25.4501 49.5471 25.5569 49.377C25.669 49.2095 25.7481 49.005 25.8062 48.765C25.855 48.521 25.8866 48.2441 25.8866 47.9368C25.8866 47.822 25.8787 47.6954 25.8695 47.553C25.8602 47.4119 25.8405 47.2721 25.8075 47.1296C25.7785 46.9859 25.7336 46.8513 25.6756 46.7181C25.6162 46.5863 25.5398 46.4689 25.4395 46.3647C25.3432 46.2644 25.2206 46.1827 25.0755 46.1181C24.9304 46.0561 24.7577 46.0271 24.5559 46.0271C24.428 46.0271 24.2882 46.0416 24.1325 46.0785C23.9769 46.1141 23.8173 46.1695 23.6498 46.2486C23.4876 46.3291 23.3175 46.4346 23.1473 46.5678C22.9785 46.6997 22.8123 46.8645 22.658 47.0624L22.05 46.4478C22.2558 46.1893 22.4708 45.9756 22.691 45.8068C22.9152 45.6367 23.1342 45.5008 23.3584 45.398C23.5826 45.2964 23.8015 45.2199 24.0178 45.1803C24.2367 45.1355 24.4411 45.1157 24.635 45.1157C25.0505 45.1157 25.4171 45.183 25.7297 45.3175C26.0449 45.456 26.306 45.6419 26.5144 45.8833C26.7214 46.1273 26.8744 46.4174 26.9799 46.7551C27.0828 47.094 27.1356 47.4633 27.1356 47.8708C27.1356 48.3535 27.0683 48.7782 26.9351 49.1435C26.8059 49.5049 26.6212 49.8135 26.3891 50.0549C26.1583 50.2988 25.884 50.4769 25.5727 50.5995C25.2602 50.7169 24.9252 50.7789 24.5691 50.7789C24.213 50.7789 23.9096 50.7235 23.6142 50.6114C23.3188 50.5006 23.0603 50.3265 22.8414 50.0957C22.6224 49.861 22.4497 49.5616 22.3217 49.1989C22.1951 48.8375 22.1371 48.4023 22.1371 47.9025C22.1371 47.8735 22.1371 47.8286 22.1397 47.7719C22.141 47.7165 22.1476 47.6506 22.1569 47.5754H24.5414V48.4604H23.3504L23.3544 48.463Z" fill="#221F1F"/>
<path d="M31.3638 50.651V47.975C31.2266 47.9777 31.0763 47.9843 30.9141 47.9948C30.7479 48.008 30.5896 48.0238 30.4248 48.0515C30.2599 48.0819 30.103 48.1188 29.9473 48.1689C29.793 48.2217 29.6572 48.2876 29.5398 48.3667C29.4185 48.4498 29.3261 48.5474 29.2523 48.6648C29.1837 48.7848 29.1441 48.9233 29.1441 49.0829C29.1441 49.1976 29.1692 49.3058 29.2154 49.406C29.2681 49.5036 29.3288 49.592 29.4026 49.6671C29.4818 49.741 29.5675 49.799 29.6664 49.8425C29.764 49.8834 29.8629 49.9058 29.9671 49.9058C30.0502 49.9058 30.1346 49.9006 30.2151 49.8861C30.2968 49.8755 30.3667 49.8544 30.434 49.8254L30.707 50.531C30.5448 50.5837 30.3905 50.6299 30.2401 50.6589C30.0845 50.6892 29.9421 50.7011 29.8049 50.7011C29.5121 50.7011 29.2483 50.6589 29.0175 50.5732C28.7841 50.4861 28.5836 50.3714 28.4201 50.229C28.2539 50.0852 28.1286 49.9204 28.0416 49.7291C27.9519 49.5418 27.911 49.3453 27.911 49.1369C27.911 48.7901 27.9941 48.4947 28.1603 48.2494C28.3278 48.0093 28.5599 47.8062 28.8593 47.6519C29.1613 47.4976 29.5213 47.3829 29.9447 47.3103C30.368 47.2365 30.8323 47.1969 31.3466 47.1877V47.0241C31.3466 46.978 31.344 46.9186 31.3361 46.8474C31.3295 46.7762 31.3137 46.705 31.2873 46.6285C31.2609 46.5507 31.2253 46.4755 31.1739 46.399C31.1238 46.3251 31.0604 46.2566 30.9787 46.1985C30.8943 46.1392 30.794 46.0917 30.674 46.0535C30.5514 46.0178 30.4063 46.002 30.2362 46.002C29.9724 46.002 29.6928 46.0469 29.3947 46.1365C29.098 46.2275 28.7749 46.3779 28.4333 46.5876L28.0442 45.8332C28.2236 45.7211 28.4109 45.6248 28.5942 45.5391C28.7815 45.4481 28.9727 45.3742 29.1732 45.3123C29.3723 45.2503 29.5794 45.2041 29.7957 45.1698C30.0067 45.1395 30.2335 45.1237 30.4722 45.1237C30.6028 45.1237 30.7228 45.1303 30.831 45.1461C30.9444 45.1606 31.0525 45.1883 31.1633 45.2305C31.2424 45.2595 31.3137 45.2977 31.3783 45.3465C31.439 45.3901 31.497 45.4375 31.5497 45.4824C31.5458 45.4441 31.5379 45.3993 31.53 45.3597C31.5247 45.3215 31.522 45.2806 31.5168 45.2384C31.5155 45.1936 31.5128 45.1527 31.5128 45.1184V44.666H32.7011C32.6932 44.7662 32.6826 44.8942 32.6787 45.0472C32.6668 45.2015 32.6615 45.365 32.6549 45.5391C32.6497 45.7079 32.6457 45.8794 32.6404 46.0521C32.6352 46.2275 32.6325 46.3819 32.6325 46.5203V50.655H31.3677L31.3638 50.651Z" fill="#221F1F"/>
<path d="M38.8061 50.6509H37.5413V45.5442C37.5413 45.4018 37.5558 45.2633 37.5796 45.1288C37.6099 44.9916 37.6468 44.8624 37.693 44.7424C37.7378 44.6223 37.7866 44.5116 37.8407 44.41C37.8974 44.3045 37.9528 44.2122 38.0029 44.1344C37.9093 44.0922 37.8064 44.0447 37.7009 43.9972C37.5941 43.9431 37.4859 43.8891 37.3765 43.8323C37.2644 43.773 37.1562 43.715 37.0494 43.6556C36.9386 43.5923 36.8331 43.533 36.7342 43.4723C36.6339 43.4169 36.5377 43.3628 36.4533 43.3061C36.3636 43.2534 36.2844 43.2059 36.2185 43.165L36.6577 42.3592C36.7777 42.4462 36.9056 42.5359 37.0362 42.6243C37.1681 42.7153 37.3092 42.805 37.4569 42.8907C37.602 42.9804 37.7589 43.0648 37.9185 43.1492C38.0834 43.2323 38.2561 43.3167 38.4329 43.3958C38.4869 43.3206 38.5516 43.2336 38.6254 43.1413C38.6953 43.0463 38.7718 42.9513 38.8457 42.8538C38.9248 42.7562 39.0013 42.6691 39.0778 42.5807C39.1503 42.4911 39.215 42.4146 39.2809 42.3486L39.9522 42.9738C39.8691 43.0674 39.7794 43.1637 39.6884 43.2613C39.6001 43.3628 39.5117 43.471 39.4247 43.5884C39.3416 43.7044 39.2598 43.8297 39.1833 43.9616C39.1094 44.0974 39.0409 44.2412 38.9842 44.4061C38.9301 44.5643 38.8866 44.7344 38.8562 44.923C38.8246 45.109 38.8048 45.3134 38.8048 45.5324V50.6522L38.8061 50.6509Z" fill="#221F1F"/>
<path d="M41.2724 48.463C41.2724 48.6898 41.3027 48.8956 41.3608 49.0723C41.4254 49.2517 41.5058 49.402 41.6166 49.5234C41.7261 49.646 41.8501 49.7423 42.0004 49.8043C42.1468 49.8689 42.3143 49.9019 42.4897 49.9019C42.7126 49.9019 42.9051 49.8557 43.0687 49.766C43.2362 49.6777 43.372 49.5471 43.4802 49.377C43.5909 49.2095 43.6727 49.005 43.7268 48.765C43.7795 48.521 43.8086 48.2441 43.8086 47.9368C43.8086 47.822 43.802 47.6954 43.7941 47.553C43.7835 47.4119 43.7611 47.2721 43.7347 47.1296C43.703 46.9859 43.6582 46.8513 43.6028 46.7181C43.5408 46.5863 43.4617 46.4689 43.3641 46.3647C43.2665 46.2644 43.1452 46.1827 43.0014 46.1181C42.8577 46.0561 42.6783 46.0271 42.4778 46.0271C42.3525 46.0271 42.2075 46.0416 42.0571 46.0785C41.9028 46.1141 41.7432 46.1695 41.5757 46.2486C41.4109 46.3291 41.2407 46.4346 41.0732 46.5678C40.9005 46.6997 40.7356 46.8645 40.5813 47.0624L39.976 46.4478C40.183 46.1893 40.3967 45.9756 40.6156 45.8068C40.8385 45.6367 41.0627 45.5008 41.2869 45.398C41.5032 45.2964 41.7274 45.2199 41.9424 45.1803C42.16 45.1355 42.3631 45.1157 42.557 45.1157C42.975 45.1157 43.343 45.183 43.6569 45.3175C43.9668 45.456 44.224 45.6419 44.4363 45.8833C44.6421 46.1273 44.7977 46.4174 44.9019 46.7551C45.0074 47.094 45.0588 47.4633 45.0588 47.8708C45.0588 48.3535 44.9903 48.7782 44.8623 49.1435C44.7278 49.5049 44.5392 49.8135 44.3084 50.0549C44.0802 50.2988 43.8099 50.4769 43.4973 50.5995C43.1821 50.7169 42.8484 50.7789 42.491 50.7789C42.1336 50.7789 41.8355 50.7235 41.5362 50.6114C41.2421 50.5006 40.9862 50.3265 40.7633 50.0957C40.5444 49.861 40.3729 49.5616 40.2463 49.1989C40.1237 48.8375 40.0577 48.4023 40.0577 47.9025C40.0577 47.8735 40.0604 47.8286 40.063 47.7719C40.0683 47.7165 40.0722 47.6506 40.0828 47.5754H42.4673V48.4604H41.2737L41.2724 48.463Z" fill="#221F1F"/>
<path d="M50.4755 47.6373H52.1254V46.6389C52.1254 46.5347 52.1069 46.4464 52.07 46.3659C52.0317 46.2841 51.9763 46.2182 51.9091 46.1654C51.8365 46.11 51.7548 46.0692 51.6572 46.0415C51.5596 46.0098 51.4554 45.9979 51.3367 45.9979C51.1903 45.9979 51.0294 46.0204 50.8698 46.0586C50.7076 46.1021 50.548 46.1496 50.3977 46.2142C50.242 46.2775 50.097 46.3461 49.9572 46.4253C49.8213 46.5017 49.7039 46.5756 49.6037 46.6495L49.2305 45.8542C49.3413 45.7764 49.4771 45.6959 49.6314 45.6062C49.7844 45.5192 49.9558 45.4401 50.1365 45.3675C50.3238 45.2924 50.515 45.2343 50.7115 45.1855C50.912 45.138 51.1125 45.1169 51.3143 45.1169C51.6347 45.1169 51.9236 45.1499 52.1794 45.2198C52.4419 45.2924 52.6582 45.4005 52.8349 45.539C53.0169 45.6854 53.1501 45.8634 53.249 46.0758C53.3453 46.2894 53.3941 46.5413 53.3941 46.8262V50.6509H52.1254V48.5209H50.4755V47.6373Z" fill="#221F1F"/>
<path d="M50.126 43.4183H52.2823V42.4661H53.5154V44.1911H49.7963L50.126 43.4183Z" fill="#221F1F"/>
<path d="M59.449 48.7478C59.449 48.8243 59.4569 48.906 59.4714 48.9918C59.4859 49.0775 59.5109 49.1606 59.5452 49.245C59.5782 49.3347 59.6217 49.4151 59.6758 49.4956C59.7312 49.5747 59.8011 49.6446 59.8842 49.7053C59.9673 49.7659 60.0688 49.8134 60.1822 49.849C60.2943 49.8846 60.4302 49.9031 60.5805 49.9031C60.7309 49.9031 60.868 49.8833 60.9815 49.849C61.0962 49.8134 61.1991 49.7659 61.2808 49.7053C61.3653 49.6446 61.4365 49.5747 61.4932 49.4956C61.5486 49.4151 61.5908 49.3347 61.6264 49.245C61.6607 49.1619 61.6844 49.0775 61.6989 48.9918C61.7108 48.906 61.7213 48.8243 61.7213 48.7478V42.929H62.9861V48.4814C62.9861 48.6634 62.969 48.8493 62.9321 49.034C62.903 49.2212 62.8437 49.398 62.7685 49.5707C62.692 49.7409 62.5918 49.9018 62.4678 50.0508C62.3452 50.1972 62.1922 50.3291 62.0155 50.4372C61.8387 50.5441 61.6317 50.6298 61.3929 50.6931C61.1542 50.7551 60.8865 50.7894 60.5805 50.7894C60.2746 50.7894 60.0068 50.7551 59.7747 50.6931C59.536 50.6311 59.3342 50.5454 59.1509 50.4372C58.9781 50.3291 58.8264 50.1972 58.7038 50.0508C58.5759 49.9031 58.4796 49.7422 58.4044 49.5707C58.3253 49.398 58.2712 49.2212 58.2369 49.034C58.2039 48.8533 58.1842 48.6647 58.1842 48.4814V46.7761C58.1842 46.6191 58.1815 46.4754 58.1723 46.3382C58.167 46.201 58.1525 46.0758 58.1433 45.9505C58.1288 45.8304 58.1129 45.7065 58.0905 45.5904C58.0734 45.4783 58.0536 45.3609 58.0338 45.2515H59.3118C59.3461 45.3715 59.3725 45.4915 59.387 45.6168C59.4067 45.7434 59.4199 45.8529 59.4318 45.9557C59.4397 46.0744 59.4463 46.1879 59.449 46.2973V48.7451V48.7478Z" fill="#221F1F"/>
<path d="M64.4645 49.3848C64.6096 49.5061 64.7494 49.5984 64.8826 49.667C65.0185 49.7382 65.1411 49.787 65.2625 49.8226C65.3772 49.8543 65.4827 49.8727 65.579 49.8833C65.6739 49.8912 65.7517 49.8965 65.8151 49.8965C65.9588 49.8978 66.0801 49.882 66.1843 49.8424C66.2859 49.8081 66.3663 49.7593 66.4349 49.6973C66.4995 49.634 66.551 49.5655 66.58 49.4903C66.6116 49.4111 66.6248 49.3333 66.6248 49.2529C66.6248 49.1474 66.6011 49.0524 66.5563 48.972C66.5061 48.8902 66.4441 48.8177 66.3584 48.753C66.2806 48.691 66.1843 48.633 66.0735 48.5842C65.9628 48.5315 65.8441 48.4866 65.7241 48.4391C65.4708 48.3495 65.2466 48.2466 65.0475 48.1345C64.8536 48.0224 64.6887 47.8945 64.5503 47.7507C64.4157 47.6083 64.3076 47.4487 64.2417 47.2706C64.1678 47.0979 64.1282 46.9014 64.1282 46.689C64.1282 46.449 64.1797 46.2287 64.2746 46.0388C64.3749 45.8436 64.5107 45.6814 64.6887 45.5469C64.8628 45.4124 65.0699 45.3055 65.3112 45.2356C65.5526 45.1605 65.8164 45.1235 66.1105 45.1235C66.2687 45.1235 66.4257 45.138 66.5853 45.1684C66.7448 45.2027 66.9005 45.2409 67.0442 45.2871C67.188 45.3359 67.3251 45.3886 67.4452 45.444C67.5731 45.502 67.6786 45.5522 67.7656 45.5996L67.3964 46.3962C67.3542 46.3712 67.2869 46.3369 67.2051 46.292C67.1155 46.2498 67.0126 46.2037 66.8952 46.1641C66.7791 46.1206 66.6459 46.081 66.4982 46.0454C66.3545 46.0177 66.2015 46.0032 66.0432 46.0032C65.9206 46.0032 65.8137 46.0177 65.7227 46.0454C65.6317 46.0797 65.5552 46.1245 65.4959 46.1786C65.4365 46.2301 65.3904 46.292 65.364 46.3619C65.331 46.4305 65.3192 46.4991 65.3192 46.5703C65.3192 46.6666 65.3389 46.751 65.3838 46.8288C65.4286 46.904 65.4946 46.9752 65.575 47.0372C65.6542 47.1045 65.7557 47.1638 65.8704 47.2245C65.9839 47.2812 66.1144 47.3392 66.2582 47.3986C66.5193 47.5094 66.7475 47.6188 66.9427 47.727C67.1365 47.8377 67.3027 47.9617 67.4346 48.091C67.5625 48.2242 67.6641 48.3745 67.7274 48.5354C67.792 48.7029 67.825 48.8889 67.825 49.1078C67.825 49.3267 67.7841 49.5523 67.6971 49.754C67.6153 49.9572 67.486 50.1352 67.3159 50.2842C67.1418 50.4399 66.9242 50.5612 66.6631 50.6509C66.398 50.7392 66.0907 50.7841 65.728 50.7841C65.5843 50.7841 65.4379 50.7683 65.2849 50.7419C65.1319 50.7115 64.9789 50.6693 64.8299 50.6126C64.6769 50.5546 64.5292 50.4821 64.3854 50.4016C64.2403 50.3172 64.1019 50.2209 63.9766 50.1088L64.4606 49.3848H64.4645Z" fill="#221F1F"/>
<path d="M71.7143 46.9344C71.5903 46.9793 71.4466 47.0228 71.2817 47.0637C71.1142 47.1085 70.9401 47.1454 70.7608 47.1797C70.5788 47.2167 70.3954 47.243 70.2174 47.2628C70.0314 47.2852 69.8639 47.2958 69.7096 47.2997C69.3311 47.3024 69.0542 47.2364 68.8722 47.1019C68.6862 46.9621 68.6071 46.7696 68.6255 46.5163C68.6255 46.4768 68.6282 46.4293 68.6334 46.3752C68.6414 46.3198 68.6559 46.2539 68.6783 46.1761C68.7007 46.0943 68.7337 46.0073 68.7838 45.9031C68.8273 45.8002 68.8972 45.6762 68.9829 45.5391L70.0262 45.8701C69.9615 45.9532 69.918 46.0244 69.8864 46.0785C69.8508 46.1325 69.8336 46.1893 69.8336 46.2512C69.8336 46.2605 69.8336 46.2776 69.8362 46.2961C69.8415 46.3132 69.8455 46.3304 69.86 46.3475C69.8745 46.3647 69.8995 46.3805 69.9286 46.3924C69.9576 46.4016 69.9998 46.4056 70.0512 46.4056C70.1462 46.4056 70.2464 46.4016 70.3651 46.3924C70.4851 46.3805 70.6078 46.3607 70.7436 46.3396C70.8755 46.3172 71.014 46.2908 71.1472 46.2578C71.287 46.2262 71.4189 46.1893 71.5402 46.1497L71.7143 46.9344ZM71.7143 49.6499C71.5903 49.6961 71.4466 49.7409 71.2817 49.7832C71.1142 49.828 70.9401 49.8662 70.7608 49.8979C70.5788 49.9322 70.3954 49.9599 70.2174 49.9797C70.0314 50.0047 69.8639 50.0153 69.7096 50.0166C69.3311 50.0219 69.0542 49.9559 68.8722 49.8201C68.6862 49.6842 68.6071 49.4904 68.6255 49.2345C68.6255 49.1976 68.6282 49.1488 68.6334 49.0934C68.6414 49.038 68.6559 48.9721 68.6783 48.8942C68.7007 48.8151 68.7337 48.7241 68.7838 48.6212C68.8273 48.5157 68.8972 48.397 68.9829 48.2586L70.0262 48.5883C69.9615 48.6714 69.918 48.7439 69.8864 48.7993C69.8508 48.852 69.8336 48.9087 69.8336 48.9707C69.8336 48.9826 69.8336 48.9958 69.8362 49.0156C69.8415 49.0327 69.8455 49.0525 69.86 49.067C69.8745 49.0842 69.8995 49.0987 69.9286 49.1105C69.9576 49.1211 69.9998 49.125 70.0512 49.125C70.1462 49.125 70.2464 49.1198 70.3651 49.1105C70.4851 49.0987 70.6078 49.0815 70.7436 49.0591C70.8755 49.0354 71.014 49.0077 71.1472 48.9786C71.287 48.943 71.4189 48.9087 71.5402 48.8705L71.7143 49.6526V49.6499Z" fill="#221F1F"/>
<path d="M73.0187 50.6508V47.5805C73.0187 47.5317 73.0108 47.475 72.9989 47.4051C72.9897 47.3365 72.9633 47.2719 72.9277 47.2072C72.8881 47.1453 72.8367 47.0859 72.7694 47.0345C72.7021 46.987 72.6138 46.9567 72.5043 46.9435L72.325 46.259C72.6402 46.0058 72.9395 45.804 73.2178 45.6523C73.4935 45.502 73.7533 45.3859 73.9999 45.3054C74.2413 45.225 74.4707 45.1749 74.6844 45.1498C74.8994 45.1287 75.0985 45.1182 75.2858 45.1182C75.6102 45.1182 75.8911 45.1485 76.1285 45.2092C76.3699 45.2712 76.5743 45.3529 76.7431 45.4624C76.9106 45.5666 77.0531 45.6945 77.1586 45.8369C77.2667 45.9794 77.3538 46.131 77.4144 46.2946C77.4764 46.4581 77.5239 46.6283 77.5476 46.7997C77.5701 46.9712 77.5819 47.14 77.5819 47.3088V50.6521H76.3185V47.1584C76.3185 47.0899 76.3132 47.0134 76.3026 46.929C76.2947 46.8432 76.2802 46.7575 76.2591 46.6705C76.2314 46.5874 76.1945 46.5003 76.1457 46.4212C76.0995 46.3381 76.0389 46.2669 75.9571 46.1996C75.878 46.1376 75.779 46.0875 75.6603 46.0493C75.539 46.0124 75.3966 45.9899 75.2304 45.9899C74.9389 45.9899 74.6646 46.0374 74.3982 46.1245C74.1344 46.2089 73.8812 46.3276 73.6478 46.4753C73.8693 46.5795 74.0342 46.7377 74.1357 46.9448C74.236 47.1518 74.2861 47.3998 74.2861 47.6913V50.6495H73.0213L73.0187 50.6508Z" fill="#221F1F"/>
<path d="M77.979 44.1911H75.0972C74.7952 44.1806 74.5684 44.1054 74.418 43.9551C74.2716 43.8074 74.1991 43.5937 74.1991 43.3154V42.8169H75.2621V43.2073C75.2647 43.2613 75.2713 43.3036 75.2845 43.3312C75.2951 43.3629 75.3135 43.3814 75.3399 43.3972C75.3597 43.4091 75.3927 43.4196 75.4283 43.4249C75.4626 43.4249 75.51 43.4302 75.5602 43.4341H78.2981L77.9763 44.1911H77.979Z" fill="#221F1F"/>
<path d="M78.9259 46.7721C78.9259 46.6178 78.9232 46.4714 78.9166 46.3368C78.9061 46.201 78.8955 46.0704 78.8837 45.9478C78.8665 45.8238 78.8494 45.7038 78.8349 45.5904C78.8138 45.4783 78.7966 45.3609 78.7755 45.2514H80.0522C80.0865 45.3714 80.1142 45.4915 80.1313 45.6167C80.1484 45.7434 80.1603 45.8528 80.1722 45.9557C80.1801 46.0704 80.188 46.1865 80.192 46.2933V48.4655C80.1959 48.6739 80.2104 48.8664 80.2421 49.0418C80.2698 49.2199 80.3212 49.3689 80.3924 49.4968C80.4637 49.6248 80.5547 49.7224 80.672 49.7949C80.7868 49.8648 80.9358 49.9004 81.1099 49.9004C81.2748 49.9004 81.4343 49.8608 81.5873 49.7817C81.7403 49.7065 81.8801 49.5984 82.0014 49.4652C82.1188 49.3306 82.2177 49.1724 82.289 48.9877C82.3602 48.8018 82.3971 48.6066 82.3971 48.3969V45.2488H83.6645V49.175C83.6645 49.2924 83.6645 49.4032 83.6672 49.4955C83.6698 49.5944 83.6724 49.6933 83.6764 49.8015C83.6856 49.9096 83.6909 50.031 83.7015 50.1615C83.7107 50.2921 83.7212 50.4543 83.7397 50.6482H82.5778C82.5738 50.5664 82.5633 50.4978 82.5606 50.4345C82.5527 50.3699 82.5488 50.3066 82.5461 50.2393C82.5382 50.1734 82.5369 50.1061 82.5343 50.0362C82.5316 49.9663 82.525 49.8859 82.5224 49.7962C82.4314 49.9281 82.3246 50.0547 82.2072 50.1734C82.0898 50.2881 81.9566 50.391 81.8129 50.4754C81.6691 50.5651 81.5056 50.631 81.3315 50.6838C81.1574 50.7326 80.9648 50.7577 80.7578 50.7577C80.6285 50.7577 80.49 50.7431 80.3502 50.7128C80.2065 50.6838 80.0693 50.6337 79.9322 50.5651C79.799 50.4965 79.6684 50.4055 79.5457 50.2934C79.4257 50.1774 79.3189 50.0336 79.2252 49.8635C79.1342 49.6933 79.0604 49.4916 79.009 49.2634C78.9522 49.0313 78.9259 48.7662 78.9259 48.4642V46.7694V46.7721Z" fill="#221F1F"/>
<path d="M85.4371 47.5818C85.4371 47.5343 85.4292 47.4763 85.416 47.4064C85.4015 47.3391 85.379 47.2732 85.3421 47.2099C85.3052 47.1452 85.2537 47.0859 85.1904 47.0371C85.1192 46.987 85.0322 46.9567 84.9188 46.9435L84.7433 46.259C85.0572 46.0058 85.3527 45.804 85.6283 45.6536C85.9039 45.502 86.1638 45.3846 86.4012 45.3054C86.6425 45.225 86.8654 45.1749 87.0751 45.1498C87.2835 45.1287 87.4839 45.1182 87.6725 45.1182C87.9917 45.1182 88.2752 45.1485 88.5087 45.2092C88.7461 45.2712 88.9492 45.3556 89.1167 45.4624C89.2842 45.5666 89.4213 45.6945 89.5295 45.833C89.6363 45.9794 89.7207 46.131 89.7801 46.2933C89.8394 46.4568 89.879 46.6243 89.904 46.7997C89.9265 46.9685 89.9383 47.1387 89.9383 47.3062V50.6495H88.6722V47.1558C88.6722 47.0833 88.6683 47.0107 88.659 46.9263C88.6538 46.8406 88.6393 46.7549 88.6208 46.6705C88.5971 46.5847 88.5614 46.5003 88.5166 46.4199C88.4731 46.3368 88.4137 46.2669 88.3346 46.1983C88.2528 46.1363 88.1579 46.0862 88.0405 46.048C87.9192 46.011 87.782 45.9886 87.6145 45.9886C87.323 45.9886 87.0514 46.0361 86.7968 46.1231C86.541 46.2075 86.2983 46.3262 86.0596 46.474C86.2891 46.5781 86.4513 46.7364 86.5515 46.9435C86.6517 47.1505 86.6979 47.3985 86.6979 47.6913V49.2924C86.6979 49.5284 86.6715 49.7329 86.6135 49.9096C86.5541 50.0889 86.4697 50.234 86.3642 50.3501C86.26 50.4675 86.1308 50.5571 85.9883 50.6152C85.8446 50.6758 85.6863 50.7049 85.5149 50.7088C85.4806 50.7114 85.4344 50.7088 85.3606 50.7049C85.2867 50.6969 85.2102 50.689 85.1285 50.6785C85.0454 50.6679 84.9583 50.6547 84.8726 50.6389C84.7869 50.6244 84.713 50.6086 84.6523 50.5941L84.8409 49.8252C84.9385 49.8647 85.0229 49.8885 85.0849 49.8977C85.143 49.9069 85.1984 49.9096 85.2419 49.9096C85.2946 49.9043 85.3316 49.8924 85.3553 49.8634C85.3817 49.837 85.4001 49.8041 85.4107 49.7645C85.4239 49.7315 85.4331 49.6933 85.4331 49.6537C85.4358 49.6168 85.4357 49.5865 85.4357 49.5614V47.5792L85.4371 47.5818Z" fill="#221F1F"/>
<path d="M90.3353 44.1911H87.4536C87.1515 44.1806 86.9221 44.1054 86.7717 43.9551C86.628 43.8074 86.5554 43.5937 86.5554 43.3154V42.8169H87.6171V43.2073C87.6197 43.2613 87.6263 43.3036 87.6395 43.3312C87.6514 43.3629 87.6672 43.3814 87.6923 43.3972C87.7147 43.4091 87.745 43.4196 87.7859 43.4249C87.8228 43.4249 87.865 43.4302 87.9178 43.4341H90.6531L90.334 44.1911H90.3353Z" fill="#221F1F"/>
<path d="M93.6022 49.9031C93.8382 49.9031 94.0347 49.8688 94.1904 49.8055C94.3447 49.7422 94.466 49.6578 94.5544 49.5562C94.6507 49.4533 94.714 49.3373 94.7482 49.2094C94.7852 49.0814 94.8036 48.9548 94.8036 48.8322V45.2475H96.0711V48.7174C96.0711 48.8968 96.0539 49.0722 96.0183 49.241C95.9787 49.4164 95.9207 49.5773 95.8416 49.7303C95.7598 49.882 95.6569 50.0231 95.5264 50.1497C95.3984 50.2803 95.2415 50.3924 95.0608 50.4847C94.8828 50.5783 94.6678 50.6495 94.4304 50.701C94.1851 50.7537 93.9121 50.7801 93.6035 50.7801C93.4479 50.7801 93.2764 50.7669 93.0944 50.7419C92.915 50.7115 92.7357 50.6667 92.5537 50.6087C92.373 50.5506 92.2002 50.4781 92.034 50.3897C91.8665 50.3001 91.7254 50.1879 91.5962 50.0679C91.4682 49.9453 91.3706 49.7989 91.2968 49.6433C91.2177 49.4797 91.1781 49.2977 91.1781 49.0986C91.1781 48.9337 91.2058 48.7807 91.2546 48.6449C91.3073 48.5051 91.3733 48.3811 91.4551 48.2664C91.5408 48.1543 91.6397 48.054 91.7518 47.963C91.8626 47.8733 91.9839 47.7903 92.1079 47.719C91.9852 47.6755 91.8705 47.6175 91.761 47.5423C91.6503 47.4632 91.5474 47.3748 91.4617 47.2693C91.3759 47.1651 91.306 47.0477 91.2546 46.9211C91.2058 46.7906 91.1781 46.6521 91.1781 46.507C91.1781 46.296 91.2309 46.1061 91.3232 45.9373C91.4208 45.7671 91.5592 45.6273 91.7267 45.5086C91.8969 45.3939 92.096 45.3029 92.3268 45.2435C92.5629 45.1842 92.8095 45.1499 93.0799 45.1499C93.0891 45.1499 93.1089 45.1512 93.1287 45.1512C93.1524 45.1512 93.1788 45.1512 93.1999 45.1565C93.2263 45.1565 93.254 45.1591 93.2764 45.1591H93.3292L93.5692 46.0177C93.5059 46.0111 93.4571 46.0085 93.4202 46.0058C93.3819 46.0032 93.3529 46.0032 93.3344 46.0006C93.3147 45.9966 93.2988 45.9927 93.2922 45.9927H93.2685C93.1603 45.9927 93.0562 46.0111 92.9559 46.0375C92.8583 46.0665 92.7713 46.1061 92.6948 46.1575C92.6209 46.2076 92.5629 46.2696 92.5181 46.3382C92.4745 46.4107 92.4508 46.4912 92.4508 46.5782C92.4508 46.6732 92.4653 46.7642 92.5036 46.8433C92.5405 46.9211 92.5946 46.9871 92.6618 47.0438C92.7278 47.1018 92.8122 47.1427 92.9111 47.1717C93.0074 47.2007 93.1168 47.2166 93.2448 47.2166C93.2672 47.2166 93.3094 47.2166 93.3661 47.2139C93.4281 47.2113 93.494 47.1968 93.5718 47.1744L93.825 47.8852C93.7143 47.9208 93.6048 47.9538 93.4901 47.9907C93.3793 48.029 93.2738 48.0725 93.1735 48.116C93.0693 48.1635 92.9757 48.2163 92.8873 48.2716C92.799 48.3244 92.7225 48.389 92.6592 48.4616C92.5946 48.5315 92.5431 48.6106 92.5088 48.7016C92.4693 48.786 92.4521 48.8836 92.4521 48.9931C92.4521 49.1526 92.4877 49.2898 92.5563 49.4032C92.6262 49.5153 92.7146 49.6129 92.824 49.6868C92.9322 49.7633 93.0588 49.8147 93.1973 49.8477C93.3331 49.8859 93.4703 49.9018 93.6061 49.9018" fill="#221F1F"/>
</svg>
