<svg width="24" height="24" viewBox="0 0 24 24" fill="none" xmlns="http://www.w3.org/2000/svg">
<g id="icon">
<path id="icon_2" d="M2.5 12C2.5 6.75614 6.75614 2.5 12 2.5C17.2439 2.5 21.5 6.75614 21.5 12C21.5 17.2439 17.2439 21.5 12 21.5C6.75614 21.5 2.5 17.2439 2.5 12ZM3.5 12C3.5 16.6961 7.30386 20.5 12 20.5C16.6961 20.5 20.5 16.6961 20.5 12C20.5 7.30386 16.6961 3.5 12 3.5C7.30386 3.5 3.5 7.30386 3.5 12ZM16.5 12C16.5 14.4853 14.4853 16.5 12 16.5C9.51472 16.5 7.5 14.4853 7.5 12C7.5 9.51472 9.51472 7.5 12 7.5C14.4853 7.5 16.5 9.51472 16.5 12Z" fill="#1B1464" stroke="black"/>
</g>
</svg>
