<svg width="26" height="26" viewBox="0 0 26 26" fill="none" xmlns="http://www.w3.org/2000/svg">
<g clip-path="url(#clip0_863_36500)">
<path d="M4.80469 23.2436C4.80469 21.0702 5.6681 18.9857 7.20498 17.4488C8.74187 15.9119 10.8263 15.0485 12.9998 15.0485C15.1733 15.0485 17.2578 15.9119 18.7946 17.4488C20.3315 18.9857 21.1949 21.0702 21.1949 23.2436H19.1462C19.1462 21.6135 18.4986 20.0502 17.3459 18.8975C16.1933 17.7449 14.6299 17.0973 12.9998 17.0973C11.3697 17.0973 9.80635 17.7449 8.65369 18.8975C7.50103 20.0502 6.85347 21.6135 6.85347 23.2436H4.80469ZM12.9998 14.0241C9.60396 14.0241 6.85347 11.2736 6.85347 7.87779C6.85347 4.48193 9.60396 1.73145 12.9998 1.73145C16.3957 1.73145 19.1462 4.48193 19.1462 7.87779C19.1462 11.2736 16.3957 14.0241 12.9998 14.0241ZM12.9998 11.9753C15.2637 11.9753 17.0974 10.1417 17.0974 7.87779C17.0974 5.61388 15.2637 3.78023 12.9998 3.78023C10.7359 3.78023 8.90225 5.61388 8.90225 7.87779C8.90225 10.1417 10.7359 11.9753 12.9998 11.9753Z" fill="#808080"/>
</g>
<defs>
<clipPath id="clip0_863_36500">
<rect width="24.5854" height="24.5854" fill="white" transform="translate(0.707031 0.707031)"/>
</clipPath>
</defs>
</svg>
