<svg width="41" height="41" viewBox="0 0 41 41" fill="none" xmlns="http://www.w3.org/2000/svg">
<path d="M20.3014 0.718018H20.2103C9.193 0.718018 0.261719 9.65193 0.261719 20.6725V20.7636C0.261719 31.7841 9.193 40.718 20.2103 40.718H20.3014C31.3187 40.718 40.2499 31.7841 40.2499 20.7636V20.6725C40.2499 9.65193 31.3187 0.718018 20.3014 0.718018Z" fill="#1B1464"/>
<path d="M29.9225 15.1887V18.9655C29.2626 18.901 28.4052 18.7511 27.4567 18.4035C26.2183 17.9495 25.2964 17.3287 24.6926 16.848V24.4814L24.6772 24.4576C24.687 24.6089 24.6926 24.7631 24.6926 24.9186C24.6926 28.7094 21.609 31.7953 17.818 31.7953C14.0269 31.7953 10.9434 28.7094 10.9434 24.9186C10.9434 21.1279 14.0269 18.0406 17.818 18.0406C18.1892 18.0406 18.5535 18.07 18.9093 18.1275V21.8496C18.5675 21.7276 18.2004 21.6618 17.818 21.6618C16.0233 21.6618 14.5621 23.122 14.5621 24.9186C14.5621 26.7152 16.0233 28.1755 17.818 28.1755C19.6126 28.1755 21.0739 26.7138 21.0739 24.9186C21.0739 24.8514 21.0725 24.7841 21.0683 24.7168V9.88306H24.8411C24.8551 10.2026 24.8677 10.5249 24.8817 10.8444C24.9069 11.4736 25.1311 12.0776 25.522 12.5723C25.9801 13.1539 26.6568 13.8294 27.6066 14.3689C28.4963 14.872 29.3312 15.0892 29.9225 15.1915V15.1887Z" fill="white"/>
</svg>
