<svg width="41" height="41" viewBox="0 0 41 41" fill="none" xmlns="http://www.w3.org/2000/svg">
<path d="M40.1247 20.6613C40.1247 9.64691 31.1985 0.718018 20.1874 0.718018C9.17627 0.718018 0.25 9.64691 0.25 20.6613C0.25 31.6756 9.17627 40.6045 20.1874 40.6045C31.1985 40.6045 40.1247 31.6756 40.1247 20.6613Z" fill="#1B1464"/>
<path d="M32.7415 16.5284C32.5846 15.0135 32.247 13.3389 31.0043 12.4588C30.0418 11.7763 28.7767 11.7511 27.5957 11.7525C25.0991 11.7525 22.6012 11.7567 20.1046 11.7581C17.7034 11.7609 15.3021 11.7623 12.9008 11.7651C11.8977 11.7651 10.9226 11.688 9.99094 12.1225C9.19098 12.4952 8.56475 13.2043 8.18788 13.9933C7.66532 15.0906 7.55605 16.3337 7.493 17.5473C7.37672 19.7573 7.38933 21.9729 7.52803 24.1815C7.6303 25.7931 7.88947 27.5742 9.13495 28.6015C10.2389 29.511 11.7968 29.5558 13.2286 29.5572C17.7734 29.5614 22.3196 29.5656 26.8658 29.5684C27.4486 29.5698 28.0566 29.5586 28.6506 29.4941C29.819 29.368 30.9328 29.0331 31.6837 28.167C32.4417 27.294 32.6364 26.0789 32.7513 24.9284C33.0315 22.1368 33.0287 19.3186 32.7415 16.5284ZM17.4764 24.5739V16.7471L24.2516 20.6598L17.4764 24.5739Z" fill="white"/>
</svg>
